<svg width="82" height="83" viewBox="0 0 82 83" fill="none" xmlns="http://www.w3.org/2000/svg">
<g clip-path="url(#clip0_272_9638)">
<rect x="0.25" y="0.11499" width="80" height="80" rx="32" fill="#EAF2FF"/>
<path d="M10.25 65.8774C10.25 57.0409 17.4134 49.8774 26.25 49.8774H54.25C63.0866 49.8774 70.25 57.0409 70.25 65.8774V93.8774C70.25 102.714 63.0866 109.877 54.25 109.877H26.25C17.4134 109.877 10.25 102.714 10.25 93.8774V65.8774Z" fill="#B4DBFF"/>
<circle cx="40.25" cy="28.115" r="16" fill="#B4DBFF"/>
</g>
<rect x="57.75" y="58.115" width="24" height="24" rx="12" fill="#006FFD"/>
<mask id="mask0_272_9638" style="mask-type:alpha" maskUnits="userSpaceOnUse" x="65" y="65" width="9" height="10">
<path d="M68.1421 73.7019L72.3089 69.5352L70.3298 67.5561L66.163 71.7228C66.1056 71.7802 66.0649 71.8521 66.0451 71.9309L65.5833 74.2817L67.9336 73.8199C68.0126 73.8001 68.0847 73.7593 68.1421 73.7019ZM73.654 68.1901C73.8221 68.0219 73.9166 67.7938 73.9166 67.5561C73.9166 67.3183 73.8221 67.0902 73.654 66.922L72.9429 66.2109C72.7747 66.0428 72.5467 65.9484 72.3089 65.9484C72.0711 65.9484 71.8431 66.0428 71.6749 66.2109L70.9638 66.922L72.9429 68.9012L73.654 68.1901Z" fill="#006FFD"/>
</mask>
<g mask="url(#mask0_272_9638)">
<rect x="64.75" y="65.115" width="10" height="10" fill="white"/>
</g>
<defs>
<clipPath id="clip0_272_9638">
<rect x="0.25" y="0.11499" width="80" height="80" rx="32" fill="white"/>
</clipPath>
</defs>
</svg>
