<svg width="12" height="13" viewBox="0 0 12 13" fill="none" xmlns="http://www.w3.org/2000/svg">
<g clip-path="url(#clip0_963_585)">
<mask id="mask0_963_585" style="mask-type:alpha" maskUnits="userSpaceOnUse" x="0" y="0" width="12" height="12">
<ellipse cx="6" cy="6.11498" rx="5.5" ry="5.49991" fill="#D9D9D9"/>
</mask>
<g mask="url(#mask0_963_585)">
<rect y="0.115082" width="12" height="11.9998" fill="#8F9098"/>
</g>
<path d="M4.66749 4.02562C4.45849 3.81663 4.11965 3.81663 3.91065 4.02562C3.70166 4.23462 3.70166 4.57346 3.91065 4.78245L5.24321 6.11499L3.91065 7.44753C3.70166 7.65652 3.70166 7.99536 3.91065 8.20435C4.11965 8.41334 4.45849 8.41334 4.66749 8.20435L6.00005 6.87181L7.33261 8.20435C7.54161 8.41334 7.88045 8.41334 8.08945 8.20435C8.29844 7.99536 8.29844 7.65652 8.08945 7.44753L6.75688 6.11499L8.08945 4.78245C8.29844 4.57346 8.29844 4.23462 8.08945 4.02562C7.88045 3.81663 7.54161 3.81663 7.33261 4.02562L6.00005 5.35817L4.66749 4.02562Z" fill="white"/>
</g>
<defs>
<clipPath id="clip0_963_585">
<rect width="12" height="11.9998" fill="white" transform="translate(0 0.115082)"/>
</clipPath>
</defs>
</svg>
