<svg width="21" height="21" viewBox="0 0 21 21" fill="none" xmlns="http://www.w3.org/2000/svg">
<mask id="mask0_953_697" style="mask-type:alpha" maskUnits="userSpaceOnUse" x="1" y="0" width="19" height="20">
<path d="M10.8333 0.948303C15.8954 0.948303 19.9988 5.05172 19.9988 10.1138C19.9988 15.176 15.8954 19.2794 10.8333 19.2794C9.3505 19.2814 7.88956 18.9221 6.5768 18.2327L2.64478 19.2565C2.5134 19.2907 2.37535 19.29 2.24433 19.2544C2.1133 19.2189 1.99385 19.1497 1.8978 19.0537C1.80175 18.9578 1.73245 18.8384 1.69676 18.7074C1.66106 18.5764 1.66022 18.4383 1.69431 18.3069L2.71719 14.3758C2.02592 13.0617 1.66569 11.5987 1.66773 10.1138C1.66773 5.05172 5.77115 0.948303 10.8333 0.948303Z" fill="#006FFD"/>
</mask>
<g mask="url(#mask0_953_697)">
<rect x="0.833252" y="0.11499" width="20" height="20" fill="#D4D6DD"/>
</g>
</svg>
