<svg width="16" height="17" viewBox="0 0 16 17" fill="none" xmlns="http://www.w3.org/2000/svg">
<mask id="mask0_905_56" style="mask-type:alpha" maskUnits="userSpaceOnUse" x="0" y="1" width="16" height="14">
<path fill-rule="evenodd" clip-rule="evenodd" d="M15.1463 2.70249C15.4717 2.37705 15.4717 1.84941 15.1463 1.52398C14.8208 1.19855 14.2932 1.19855 13.9678 1.52399L1.96803 13.524C1.6426 13.8494 1.6426 14.3771 1.96804 14.7025C2.29348 15.0279 2.82112 15.0279 3.14655 14.7025L4.87278 12.9762C6.82003 13.7362 9.04857 13.7918 11.1491 12.9661C13.3673 12.0933 15.1273 10.3406 16 8.11515C15.4301 6.67443 14.4966 5.44512 13.3285 4.52029L15.1463 2.70249ZM11.2876 6.56123L10.1431 7.7058C10.1687 7.83979 10.1818 7.97679 10.1818 8.11515C10.1818 8.6938 9.95195 9.24876 9.54278 9.65793C9.13361 10.0671 8.57865 10.297 8 10.297C7.86166 10.297 7.72467 10.2838 7.5907 10.2582L6.44616 11.4028C6.92746 11.6303 7.45748 11.7515 8 11.7515C8.96442 11.7515 9.88935 11.3684 10.5713 10.6864C11.2532 10.0045 11.6364 9.07957 11.6364 8.11515C11.6364 7.5726 11.5151 7.04255 11.2876 6.56123ZM8 2.6606C8.92698 2.6606 9.82894 2.81067 10.6786 3.09113L9.11563 4.65415C8.75841 4.53899 8.38231 4.47879 8 4.47879C7.03558 4.47879 6.11065 4.8619 5.4287 5.54385C4.74675 6.2258 4.36364 7.15073 4.36364 8.11515C4.36364 8.49749 4.42385 8.87361 4.53902 9.23085L2.33337 11.4366C1.33244 10.5611 0.520477 9.43921 0 8.11515C1.29455 4.84242 4.46545 2.6606 8 2.6606ZM6.45722 6.57237C6.82609 6.2035 7.31345 5.98035 7.82983 5.93997L5.82482 7.94503C5.86519 7.42863 6.08834 6.94125 6.45722 6.57237Z" fill="#006FFD"/>
</mask>
<g mask="url(#mask0_905_56)">
<rect y="0.11499" width="16" height="16" fill="#8F9098"/>
</g>
</svg>
