<svg width="12" height="13" viewBox="0 0 12 13" fill="none" xmlns="http://www.w3.org/2000/svg">
<mask id="mask0_949_185" style="mask-type:alpha" maskUnits="userSpaceOnUse" x="0" y="0" width="12" height="12">
<path d="M0.411788 4.3348C0.345199 4.35699 0.286173 4.39742 0.241424 4.45149C0.196676 4.50557 0.168002 4.57111 0.158664 4.64068C0.149326 4.71024 0.159699 4.78103 0.188603 4.845C0.217507 4.90896 0.263781 4.96352 0.322163 5.00248L3.63832 6.83053C3.70012 6.86459 3.77029 6.88052 3.84074 6.87649C3.91119 6.87245 3.97908 6.84862 4.03659 6.80773L7.55958 4.29555C7.72981 4.18153 7.93346 4.38518 7.81944 4.55542L5.30727 8.0784C5.26637 8.13591 5.24254 8.2038 5.23851 8.27425C5.23447 8.34471 5.2504 8.41487 5.28446 8.47668L7.11251 11.7928C7.15147 11.8512 7.20604 11.8975 7.27 11.9264C7.33396 11.9553 7.40475 11.9657 7.47431 11.9563C7.54388 11.947 7.60943 11.9183 7.6635 11.8736C7.71758 11.8288 7.75801 11.7698 7.78019 11.7032L11.2273 1.36177C11.2493 1.29574 11.2524 1.2249 11.2364 1.15719C11.2204 1.08948 11.1858 1.02756 11.1366 0.978358C11.0874 0.929156 11.0255 0.894614 10.9578 0.878595C10.8901 0.862577 10.8193 0.865713 10.7532 0.887653L0.411788 4.3348Z" fill="white"/>
</mask>
<g mask="url(#mask0_949_185)">
<rect y="0.11499" width="12" height="12" fill="white"/>
</g>
</svg>
